<?xml version="1.0" encoding="UTF-8"?>
<svg width="200px" height="200px" viewBox="0 0 200 200" version="1.1" xmlns="http://www.w3.org/2000/svg" xmlns:xlink="http://www.w3.org/1999/xlink">
    <!-- Generator: Sketch 48.2 (47327) - http://www.bohemiancoding.com/sketch -->
    <title>Group</title>
    <desc>Created with Sketch.</desc>
    <defs></defs>
    <g id="Color-Copy" stroke="none" stroke-width="1" fill="none" fill-rule="evenodd" transform="translate(-140.000000, -190.000000)">
        <g id="Group" transform="translate(140.000000, 190.000000)">
            <path d="M100.000182,0 C155.225172,0 200,44.772 200,99.9985455 C200,155.228364 155.225172,200 100.000182,200 C44.771555,200 0,155.228364 0,99.9985455 C0,44.772 44.771555,0 100.000182,0" id="Fill-3" fill="#F1F1F1"></path>
            <polygon id="Fill-4" fill="#484848" points="81.2182741 161.42132 117.766497 161.42132 117.766497 143.147208 81.2182741 143.147208"></polygon>
            <path d="M134.010152,163.451777 L134.010152,163.367927 C134.010152,161.171593 132.052254,159.390863 129.637403,159.390863 L70.3625972,159.390863 C67.9477463,159.390863 65.9898477,161.171593 65.9898477,163.367927 L65.9898477,163.451777 L134.010152,163.451777" id="Fill-5" fill="#484848"></path>
            <path d="M159.581763,43.6548223 C162.279849,43.6548223 164.467005,45.8248446 164.467005,48.5024977 L164.467005,138.300257 C164.467005,140.977548 162.279849,143.147208 159.581763,143.147208 L40.4178741,143.147208 C37.7201513,143.147208 35.5329949,140.977548 35.5329949,138.300257 L35.5329949,48.5024977 C35.5329949,45.8248446 37.7201513,43.6548223 40.4178741,43.6548223 L159.581763,43.6548223" id="Fill-7" fill="#484848"></path>
            <path d="M164.463011,137.055838 L164.467005,136.979907 L164.467005,46.5083933 C164.467005,43.8110257 162.279849,41.6243655 159.581763,41.6243655 L40.4178741,41.6243655 C37.7201513,41.6243655 35.5329949,43.8110257 35.5329949,46.5083933 L35.5329949,136.979907 L35.5369894,137.055838 L164.463011,137.055838" id="Fill-8" fill="#484848"></path>
            <polygon id="Fill-9" fill="#FFFFFE" points="37.5634518 134.010152 161.42132 134.010152 161.42132 47.715736 37.5634518 47.715736"></polygon>
            <polygon id="Fill-10" fill="#E3E6EC" points="37.5634518 54.822335 161.42132 54.822335 161.42132 47.715736 37.5634518 47.715736"></polygon>
            <polygon id="Fill-11" fill="#C3C3BE" points="45.6852792 76.142132 50.7614213 76.142132 50.7614213 71.0659898 45.6852792 71.0659898"></polygon>
            <polygon id="Fill-12" fill="#C3C3BE" points="45.6852792 65.9898477 50.7614213 65.9898477 50.7614213 60.9137056 45.6852792 60.9137056"></polygon>
            <polygon id="Fill-13" fill="#C3C3BE" points="45.6852792 128.93401 50.7614213 128.93401 50.7614213 123.857868 45.6852792 123.857868"></polygon>
            <polygon id="Fill-14" fill="#DE8D00" points="132.994924 86.2944162 147.208122 86.2944162 147.208122 81.2182741 132.994924 81.2182741"></polygon>
            <polygon id="Fill-15" fill="#484848" points="59.8984772 86.2944162 78.1725888 86.2944162 78.1725888 81.2182741 59.8984772 81.2182741"></polygon>
            <polygon id="Fill-16" fill="#527FFF" points="81.2182741 86.2944162 129.949239 86.2944162 129.949239 81.2182741 81.2182741 81.2182741"></polygon>
            <polygon id="Fill-17" fill="#C3C3BE" points="45.6852792 86.2944162 50.7614213 86.2944162 50.7614213 81.2182741 45.6852792 81.2182741"></polygon>
            <polygon id="Fill-18" fill="#C3C3BE" points="45.6852792 117.766497 50.7614213 117.766497 50.7614213 112.690355 45.6852792 112.690355"></polygon>
            <polygon id="Fill-19" fill="#527FFF" points="59.8984772 109.64467 88.3248731 109.64467 88.3248731 104.568528 59.8984772 104.568528"></polygon>
            <polygon id="Fill-20" fill="#484848" points="92.3857868 109.64467 120.812183 109.64467 120.812183 104.568528 92.3857868 104.568528"></polygon>
            <polygon id="Fill-21" fill="#DE8D00" points="123.857868 109.64467 139.086294 109.64467 139.086294 104.568528 123.857868 104.568528"></polygon>
            <polygon id="Fill-22" fill="#C3C3BE" points="45.6852792 107.614213 50.7614213 107.614213 50.7614213 102.538071 45.6852792 102.538071"></polygon>
            <polygon id="Fill-23" fill="#DE8D00" points="59.8984772 98.4771574 74.1116751 98.4771574 74.1116751 93.4010152 59.8984772 93.4010152"></polygon>
            <polygon id="Fill-24" fill="#527FFF" points="109.64467 98.4771574 131.979695 98.4771574 131.979695 93.4010152 109.64467 93.4010152"></polygon>
            <polygon id="Fill-25" fill="#527FFF" points="78.1725888 98.4771574 106.598985 98.4771574 106.598985 93.4010152 78.1725888 93.4010152"></polygon>
            <polygon id="Fill-26" fill="#C3C3BE" points="45.6852792 97.4619289 50.7614213 97.4619289 50.7614213 92.3857868 45.6852792 92.3857868"></polygon>
            <polygon id="Fill-27" fill="#C3C3BE" points="53.8071066 134.010152 55.8375635 134.010152 55.8375635 54.822335 53.8071066 54.822335"></polygon>
            <polyline id="Fill-28" fill="#484848" points="70.0507614 118.50364 67.3469413 115.736041 62.6110532 120.582296 62.6029978 120.574052 59.8995279 123.342009 59.9068828 123.350254 59.8984772 123.358857 62.6029978 126.126456 62.6110532 126.117853 67.3469413 130.964467 70.0507614 128.197226 65.3155738 123.350254 70.0507614 118.50364"></polyline>
            <polyline id="Fill-29" fill="#484848" points="96.4467005 123.358857 96.4379452 123.350254 96.4456499 123.342009 93.7423665 120.574052 93.7343116 120.582296 88.9987503 115.736041 86.2951167 118.50364 91.0296274 123.350254 86.2944162 128.197226 88.9987503 130.964467 93.7343116 126.117853 93.7423665 126.126456 96.4467005 123.358857"></polyline>
            <polyline id="Fill-30" fill="#484848" points="73.0964467 129.074606 76.3343025 130.964467 84.2639594 118.640774 81.025729 116.751269 73.0964467 129.074606"></polyline>
            <polyline id="Fill-31" fill="#484848" points="71.0659898 63.6809462 68.3619128 60.9137056 63.626188 65.7599612 63.6181329 65.7517169 60.9147563 68.519316 60.922111 68.5279188 60.9137056 68.5361632 63.6181329 71.3041207 63.626188 71.2955179 68.3619128 76.142132 71.0659898 73.3745329 66.3309656 68.5279188 71.0659898 63.6809462"></polyline>
            <polyline id="Fill-32" fill="#484848" points="99.4923858 68.5361632 99.4836305 68.5279188 99.4913352 68.519316 96.7880518 65.7517169 96.7799969 65.7599612 92.0444355 60.9137056 89.3404517 63.6809462 94.0756629 68.5279188 89.3401015 73.3745329 92.0444355 76.142132 96.7799969 71.2955179 96.7880518 71.3041207 99.4923858 68.5361632"></polyline>
            <polygon id="Fill-33" fill="#484848" points="73.0964467 71.0659898 87.3096447 71.0659898 87.3096447 67.0050761 73.0964467 67.0050761"></polygon>
        </g>
    </g>
</svg>