<?xml version="1.0" encoding="UTF-8"?>
<svg width="200px" height="200px" viewBox="0 0 200 200" version="1.1" xmlns="http://www.w3.org/2000/svg" xmlns:xlink="http://www.w3.org/1999/xlink">
    <!-- Generator: Sketch 48.2 (47327) - http://www.bohemiancoding.com/sketch -->
    <title>Group 4</title>
    <desc>Created with Sketch.</desc>
    <defs></defs>
    <g id="Color-Copy" stroke="none" stroke-width="1" fill="none" fill-rule="evenodd" transform="translate(-140.000000, -621.000000)">
        <g id="Group-4" transform="translate(140.000000, 621.000000)">
            <path d="M200,100 C200,155.228125 155.228125,200 100,200 C44.771875,200 0,155.228125 0,100 C0,44.771875 44.771875,0 100,0 C155.228125,0 200,44.771875 200,100" id="Fill-2" fill="#F1F1F1"></path>
            <path d="M77.4655427,69.6659035 C84.3787273,67.0653735 91.9965584,65.625 100,65.625 C126.744727,65.625 149.197342,81.7016228 155.425554,103.412687 C157.788997,102.452737 160.265161,101.840662 162.585938,101.939062 C174.251563,102.140625 181.2875,115.859375 171.828125,121.890625 C165.778125,125.567187 158.298438,120.029687 160.526563,111.25625 C163.295313,102.565625 176.523438,97.30625 186.257813,106.44375 C186.964063,107.107812 186.05625,108.207812 185.271875,107.651562 C175.515625,100.725 165.660938,107.323437 165.476563,114.214062 C165.478125,114.140625 165.46875,114.41875 165.48125,114.057812 C165.609375,115.642187 166.1,117.617187 167.579688,118.2 C167.615625,118.207812 167.648438,118.226562 167.682813,118.25625 C169.498438,119.032812 173.1875,116.33125 172.771875,113.75 C172.390872,110.189681 165.94779,103.299831 156.74364,109.688581 C157.006823,111.635322 157.142188,113.616329 157.142188,115.625 C157.142188,129.823437 150.370313,142.632812 139.507812,151.732812 C138.340625,152.709375 137.598438,154.1 137.348438,155.601562 L134.810938,170.826562 C134.559375,172.332812 133.254687,173.4375 131.728125,173.4375 L118.271875,173.4375 C116.745313,173.4375 115.440625,172.332812 115.189063,170.826562 L114.067188,164.09375 C109.567188,165.090625 104.854687,165.625 100,165.625 C95.684375,165.625 91.4859375,165.19375 87.44375,164.4 L86.3734375,170.826562 C86.121875,172.332812 84.8171875,173.4375 83.290625,173.4375 L69.834375,173.4375 C68.3078125,173.4375 67.003125,172.332812 66.753125,170.826562 L64.434375,156.920312 C64.18125,155.401562 63.390625,154.0125 62.175,153.070312 C55.690625,148.053125 50.5125,141.773437 47.1625,134.660937 C46.340625,132.915625 44.7625,131.648437 42.8796875,131.229687 L38.384375,130.23125 C36.9546875,129.914062 35.9375,128.645312 35.9375,127.18125 L35.9375,104.06875 C35.9375,102.604687 36.9546875,101.335937 38.384375,101.01875 L42.8796875,100.020312 C44.75,99.6046875 46.33125,98.3578125 47.1453125,96.625 C49.9834747,90.584955 54.1329955,85.137959 59.2839987,80.5561836 C57.6333191,73.836584 55.3441039,67.0745995 52.390625,60.36875 C51.8390625,59.115625 53.0890625,57.796875 54.36875,58.2875 C62.4260914,61.3716396 70.1552988,65.1846775 77.4655336,69.6659069 Z" id="Combined-Shape" stroke="#484848" stroke-width="3" fill="#527FFF"></path>
            <path d="M65.5796875,97.5890625 C65.5796875,99.95625 63.6609375,101.875 61.2953125,101.875 C58.928125,101.875 57.009375,99.95625 57.009375,97.5890625 C57.009375,95.221875 58.928125,93.303125 61.2953125,93.303125 C63.6609375,93.303125 65.5796875,95.221875 65.5796875,97.5890625" id="Fill-7" fill="#484848"></path>
            <path d="M82.85625,79.6171875 C81.4859375,79.6171875 80.23125,78.709375 79.846875,77.325 C79.3859375,75.6625 80.3609375,73.940625 82.0234375,73.478125 C93.5984375,70.271875 106.370312,70.26875 117.985937,73.478125 C119.65,73.9375 120.625,75.659375 120.165625,77.321875 C119.704687,78.9859375 117.982812,79.9578125 116.321875,79.503125 C105.78125,76.5921875 94.19375,76.5921875 83.6921875,79.503125 C83.4140625,79.5796875 83.1328125,79.6171875 82.85625,79.6171875" id="Fill-10" fill="#484848"></path>
            <path d="M118.75,41.1453125 C118.75,51.5015625 110.354687,59.8953125 100,59.8953125 C89.6453125,59.8953125 81.25,51.5015625 81.25,41.1453125 C81.25,30.790625 89.6453125,22.3953125 100,22.3953125 C110.354687,22.3953125 118.75,30.790625 118.75,41.1453125" id="Fill-11" stroke="#484848" stroke-width="3" fill="#FFA303"></path>
            <path d="M99.3899048,52.1666667 L99.3899048,49.5387857 C97.6821667,49.4835952 95.9753333,48.9959286 95,48.3472143 L95.7315,45.7985 C96.7887143,46.4232381 98.3055476,46.9900714 99.9594524,46.9900714 C101.666286,46.9900714 102.831167,46.1518095 102.831167,44.8498571 C102.831167,43.6320476 101.883429,42.844 99.8775714,42.1138571 C97.0325476,41.0833333 95.19,39.7836429 95.19,37.263881 C95.19,34.9314048 96.8149524,33.1440476 99.5523095,32.656381 L99.5523095,30 L101.774405,30 L101.774405,32.5197619 C103.482143,32.5749524 104.647024,32.9807381 105.514238,33.4154762 L104.782738,35.9067381 C104.131762,35.608619 102.94019,34.9865952 101.096738,34.9865952 C99.2003571,34.9865952 98.5226905,35.9619286 98.5226905,36.8843333 C98.5226905,37.9940238 99.4980238,38.6183095 101.802,39.5384524 C104.837024,40.6775476 106.191905,42.1400952 106.191905,44.5521905 C106.191905,46.8557143 104.59319,48.8878095 101.612,49.3754762 L101.612,52.1666667 L99.3899048,52.1666667" id="Fill-10" fill="#484848"></path>
        </g>
    </g>
</svg>